<svg width="64" height="64" viewBox="0 0 64 64" xmlns="http://www.w3.org/2000/svg" role="img" aria-label="GitHub logo">
  <circle cx="32" cy="32" r="30" fill="#0D1117" />
  <path
    d="M32 17c-8.3 0-15 6.7-15 15 0 6.6 4.3 12.1 10.3 14.1.8.1 1-.3 1-.7v-2.7c-4.2.9-5.1-2-5.1-2-.7-1.7-1.8-2.1-1.8-2.1-1.5-1 .1-1 .1-1 1.7.1 2.6 1.7 2.6 1.7 1.5 2.6 4 1.8 5 1.4.1-1.1.6-1.8 1-2.2-3.3-.4-6.7-1.7-6.7-7.4 0-1.6.6-3 1.6-4.1-.2-.4-.7-2 .2-4.2 0 0 1.3-.4 4.2 1.6a14.3 14.3 0 017.6 0c2.9-2 4.2-1.6 4.2-1.6.9 2.2.4 3.8.2 4.2 1 1.1 1.6 2.5 1.6 4.1 0 5.7-3.4 7-6.7 7.4.5.5 1 1.4 1 2.8v4.1c0 .4.3.9 1 .7A15.1 15.1 0 0047 32c0-8.3-6.7-15-15-15z"
    fill="#FFFFFF"
  />
</svg>
