<svg width="64" height="64" viewBox="0 0 64 64" xmlns="http://www.w3.org/2000/svg" role="img" aria-label="Twitter logo">
  <rect width="64" height="64" rx="16" fill="#1DA1F2" />
  <path
    d="M51 22.5a10.6 10.6 0 01-3 1 5.3 5.3 0 002.3-3 10.6 10.6 0 01-3.4 1.3 5.3 5.3 0 00-9 4.8A15 15 0 0120.7 20a5.3 5.3 0 001.6 7 5.1 5.1 0 01-2.4-.7v.1a5.3 5.3 0 004.2 5.2 5.4 5.4 0 01-2.4.1 5.3 5.3 0 004.9 3.6 10.7 10.7 0 01-6.6 2.3A10.1 10.1 0 0118 37a15 15 0 008.1 2.4c9.8 0 15.2-8.1 15.2-15.2v-.7A10.7 10.7 0 0051 22.5z"
    fill="#FFFFFF"
  />
</svg>
